<mxfile host="app.diagrams.net" modified="2021-06-25T13:43:20.923Z" agent="5.0 (Windows)" etag="kWMh8B_iC9I3TZaYZloA" version="14.8.1" type="github">
  <diagram id="Ra6DSvLFJcMObKfpcnIU" name="Page-1">
    <mxGraphModel dx="1969" dy="2723" grid="1" gridSize="10" guides="1" tooltips="1" connect="1" arrows="1" fold="1" page="1" pageScale="1" pageWidth="1200" pageHeight="1920" math="0" shadow="0">
      <root>
        <mxCell id="0" />
        <mxCell id="1" parent="0" />
        <object label="&lt;font style=&quot;font-size: 16px&quot;&gt;&lt;b&gt;%A_NAME%&lt;/b&gt;&lt;/font&gt;&lt;br&gt;&lt;div&gt;&lt;font style=&quot;font-size: 11px&quot;&gt;[Person]&lt;/font&gt;&lt;/div&gt;&lt;div style=&quot;font-size: 10px&quot;&gt;&lt;br&gt;&lt;/div&gt;&lt;div style=&quot;font-size: 11px&quot;&gt;&lt;font color=&quot;#CCCCCC&quot;&gt;%B_DESCRIPTION%&lt;/font&gt;&lt;/div&gt;" A_NAME="Vendedor" B_DESCRIPTION="Usuários que realizarão operações do dia a dia." placeholders="1" id="KcmYJF3Uc0OTwMoQ4MOy-2">
          <mxCell style="shape=stencil(tZTRUsMgEEW/hsdmCNimr06s/4Fka3aSQAZwWv16STYZRaXjaDuTl3sXTu6SJUzWvlUjMMGNGoDJBybEoDRCJ3fbjb7bjOC8NdGNS1qql3tO+kRa8EUrP4IOZB7xDA3ZPjjbwQmbsADQtOAwTFV5YPw+rpkeWWtrTCSgNT6pfKpHmEIT9/IzwXixpde8LppUzI0DBHBLZnKZePw9OMUW1bXA5a3AvBDpWZTXI98MXP2DLOvo5IZG1k9Kd8/OvpjmxzxzxU0Tm/nmVWbO13tQrnPvtMe35fZIcfkUjtj3dCNyDWVix63WwYV+oO9x9PDRze7LCCfd7NNmVvn32N/SzS79XmbjHQ==);whiteSpace=wrap;html=1;rounded=1;fontColor=#ffffff;arcSize=30;allowArrows=0;rotatable=0;spacingTop=70;aspect=fixed;editable=1;metaEdit=1;resizable=0;strokeColor=#06315C;fillColor=#083F75;recursiveResize=0;expand=0;" parent="1" vertex="1">
            <mxGeometry x="340" y="-100" width="200" height="180" as="geometry" />
          </mxCell>
        </object>
        <object label="&lt;div style=&quot;font-size: 16px&quot; align=&quot;left&quot;&gt;&lt;font style=&quot;font-size: 16px&quot; color=&quot;#4D4D4D&quot;&gt;&lt;b&gt;%A_NAME%&lt;br&gt;&lt;/b&gt;&lt;/font&gt;&lt;/div&gt;&lt;div align=&quot;left&quot;&gt;&lt;font style=&quot;font-size: 11px&quot; color=&quot;#4D4D4D&quot;&gt;[Container]&lt;/font&gt;&lt;/div&gt;" placeholders="1" A_NAME="Atualizador PDV" id="KcmYJF3Uc0OTwMoQ4MOy-3">
          <mxCell style="rounded=1;whiteSpace=wrap;html=1;dashed=1;arcSize=20;fillColor=none;strokeColor=#666666;fontColor=#333333;labelBackgroundColor=none;align=left;verticalAlign=bottom;labelBorderColor=none;spacingTop=0;spacing=10;dashPattern=8 4;metaEdit=1;rotatable=0;perimeter=rectanglePerimeter;noLabel=0;labelPadding=0;allowArrows=0;connectable=0;expand=0;recursiveResize=0;editable=1;pointerEvents=0;absoluteArcSize=1;" parent="1" vertex="1">
            <mxGeometry x="150" y="140" width="1390" height="680" as="geometry" />
          </mxCell>
        </object>
        <object label="&lt;font style=&quot;font-size: 16px&quot;&gt;&lt;b&gt;&lt;font style=&quot;font-size: 16px&quot;&gt;&lt;span&gt;%A_NAME%&lt;/span&gt;&lt;/font&gt;&lt;/b&gt;&lt;/font&gt;&lt;br&gt;&lt;div&gt;&lt;font style=&quot;font-size: 11px&quot;&gt;[Container: %B_TECHNOLOGY%]&lt;/font&gt;&lt;/div&gt;&lt;div style=&quot;font-size: 10px&quot;&gt;&lt;br&gt;&lt;/div&gt;&lt;div style=&quot;font-size: 11px&quot;&gt;&lt;font color=&quot;#E6E6E6&quot;&gt;%C_DESCRIPTION%&lt;/font&gt;&lt;/div&gt;" placeholders="1" A_NAME="PDV" C_DESCRIPTION="Single-Page Application do PDV." B_TECHNOLOGY="React, NodeJs, Electron, Redux" id="KcmYJF3Uc0OTwMoQ4MOy-4">
          <mxCell style="rounded=1;whiteSpace=wrap;html=1;fontColor=#ffffff;arcSize=6;metaEdit=1;points=[[0.25,0,0],[0.5,0,0],[0.75,0,0],[1,0.25,0],[1,0.5,0],[1,0.75,0],[0.75,1,0],[0.5,1,0],[0.25,1,0],[0,0.75,0],[0,0.5,0],[0,0.25,0]];resizable=0;editable=1;movableLabel=0;allowArrows=0;rotatable=0;autosize=0;fillColor=#23A2D9;strokeColor=#0E7DAD;expand=0;recursiveResize=0;" parent="1" vertex="1">
            <mxGeometry x="320" y="170" width="240" height="120" as="geometry" />
          </mxCell>
        </object>
        <object label="&lt;font style=&quot;font-size: 16px&quot;&gt;&lt;b&gt;&lt;font style=&quot;font-size: 16px&quot;&gt;&lt;span&gt;%A_NAME%&lt;/span&gt;&lt;/font&gt;&lt;/b&gt;&lt;/font&gt;&lt;br&gt;&lt;div&gt;&lt;font style=&quot;font-size: 11px&quot;&gt;[Container: %B_TECHNOLOGY%]&lt;/font&gt;&lt;/div&gt;&lt;div style=&quot;font-size: 10px&quot;&gt;&lt;br&gt;&lt;/div&gt;&lt;div style=&quot;font-size: 11px&quot;&gt;&lt;font color=&quot;#E6E6E6&quot;&gt;%C_DESCRIPTION%&lt;/font&gt;&lt;/div&gt;" placeholders="1" A_NAME="Updater Local Agent" C_DESCRIPTION="Responsável por gerir o processo de troca de versões do PDV, fazendo comunicação com o Agent Central de atualização instalado na loja." B_TECHNOLOGY="C#, .NetCore 5" id="KcmYJF3Uc0OTwMoQ4MOy-5">
          <mxCell style="rounded=1;whiteSpace=wrap;html=1;fontColor=#ffffff;arcSize=6;metaEdit=1;points=[[0.25,0,0],[0.5,0,0],[0.75,0,0],[1,0.25,0],[1,0.5,0],[1,0.75,0],[0.75,1,0],[0.5,1,0],[0.25,1,0],[0,0.75,0],[0,0.5,0],[0,0.25,0]];resizable=0;editable=1;movableLabel=0;allowArrows=0;rotatable=0;autosize=0;fillColor=#23A2D9;strokeColor=#0E7DAD;expand=0;recursiveResize=0;" parent="1" vertex="1">
            <mxGeometry x="320" y="420" width="240" height="120" as="geometry" />
          </mxCell>
        </object>
        <object label="&lt;div&gt;&lt;b&gt;%A_DESCRIPTION%&lt;/b&gt;&lt;br&gt;&lt;/div&gt;&lt;div&gt;[%B_TECHNOLOGY%]&lt;/div&gt;" placeholders="1" A_DESCRIPTION="Makes API calls" B_TECHNOLOGY="JSON/HTTP" id="KcmYJF3Uc0OTwMoQ4MOy-8">
          <mxCell style="endArrow=blockThin;html=1;fontSize=10;fontColor=#404040;strokeWidth=1;endFill=1;strokeColor=#828282;elbow=vertical;metaEdit=1;endSize=14;startSize=14;jumpStyle=arc;jumpSize=16;exitX=1.008;exitY=0.6;exitDx=0;exitDy=0;exitPerimeter=0;" parent="1" source="KcmYJF3Uc0OTwMoQ4MOy-5" target="KcmYJF3Uc0OTwMoQ4MOy-9" edge="1">
            <mxGeometry width="50" height="50" relative="1" as="geometry">
              <mxPoint x="430" y="420" as="sourcePoint" />
              <mxPoint x="670" y="420" as="targetPoint" />
            </mxGeometry>
          </mxCell>
        </object>
        <object label="&lt;font style=&quot;font-size: 16px&quot;&gt;&lt;b&gt;&lt;font style=&quot;font-size: 16px&quot;&gt;&lt;span&gt;%A_NAME%&lt;/span&gt;&lt;/font&gt;&lt;/b&gt;&lt;/font&gt;&lt;br&gt;&lt;div&gt;&lt;font style=&quot;font-size: 11px&quot;&gt;[Container: %B_TECHNOLOGY%]&lt;/font&gt;&lt;/div&gt;&lt;div style=&quot;font-size: 10px&quot;&gt;&lt;br&gt;&lt;/div&gt;&lt;div style=&quot;font-size: 11px&quot;&gt;&lt;font color=&quot;#E6E6E6&quot;&gt;%C_DESCRIPTION%&lt;/font&gt;&lt;/div&gt;" placeholders="1" A_NAME="Updater Central Manager" C_DESCRIPTION="Responsável por gerir o processo de atualização do PDV fazendo comunicação com o Backoff para verificar se há atualizações disponíveis para a loja." B_TECHNOLOGY="C#, .NetCore 5, Docker, Mongodb" id="KcmYJF3Uc0OTwMoQ4MOy-9">
          <mxCell style="rounded=1;whiteSpace=wrap;html=1;fontColor=#ffffff;arcSize=6;metaEdit=1;points=[[0.25,0,0],[0.5,0,0],[0.75,0,0],[1,0.25,0],[1,0.5,0],[1,0.75,0],[0.75,1,0],[0.5,1,0],[0.25,1,0],[0,0.75,0],[0,0.5,0],[0,0.25,0]];resizable=0;editable=1;movableLabel=0;allowArrows=0;rotatable=0;autosize=0;fillColor=#23A2D9;strokeColor=#0E7DAD;expand=0;recursiveResize=0;" parent="1" vertex="1">
            <mxGeometry x="710" y="430" width="240" height="120" as="geometry" />
          </mxCell>
        </object>
        <object label="&lt;div&gt;&lt;b&gt;%A_DESCRIPTION%&lt;/b&gt;&lt;br&gt;&lt;/div&gt;&lt;div&gt;[%B_TECHNOLOGY%]&lt;/div&gt;" placeholders="1" A_DESCRIPTION="Makes Web Socket Notifications" B_TECHNOLOGY="JSON/HTTP/WebSocket" id="KcmYJF3Uc0OTwMoQ4MOy-10">
          <mxCell style="endArrow=blockThin;html=1;fontSize=10;fontColor=#404040;strokeWidth=1;endFill=1;strokeColor=#828282;elbow=vertical;metaEdit=1;endSize=14;startSize=14;jumpStyle=arc;jumpSize=16;exitX=0.5;exitY=0;exitDx=0;exitDy=0;exitPerimeter=0;entryX=0.5;entryY=1;entryDx=0;entryDy=0;entryPerimeter=0;" parent="1" source="KcmYJF3Uc0OTwMoQ4MOy-5" target="KcmYJF3Uc0OTwMoQ4MOy-4" edge="1">
            <mxGeometry width="50" height="50" relative="1" as="geometry">
              <mxPoint x="270" y="320" as="sourcePoint" />
              <mxPoint x="510" y="320" as="targetPoint" />
            </mxGeometry>
          </mxCell>
        </object>
        <object label="&lt;div&gt;&lt;b&gt;%A_DESCRIPTION%&lt;/b&gt;&lt;br&gt;&lt;/div&gt;" placeholders="1" A_DESCRIPTION="e.g. Visits pages" id="KcmYJF3Uc0OTwMoQ4MOy-12">
          <mxCell style="endArrow=blockThin;html=1;fontSize=10;fontColor=#404040;strokeWidth=1;endFill=1;strokeColor=#828282;elbow=vertical;metaEdit=1;backgroundOutline=0;editable=1;endSize=14;startSize=14;jumpStyle=arc;jumpSize=16;fontFamily=Helvetica;exitX=0.5;exitY=1;exitDx=0;exitDy=0;entryX=0.5;entryY=0;entryDx=0;entryDy=0;entryPerimeter=0;" parent="1" source="KcmYJF3Uc0OTwMoQ4MOy-2" target="KcmYJF3Uc0OTwMoQ4MOy-4" edge="1">
            <mxGeometry width="50" height="50" relative="1" as="geometry">
              <mxPoint x="710" y="90" as="sourcePoint" />
              <mxPoint x="950" y="90" as="targetPoint" />
            </mxGeometry>
          </mxCell>
        </object>
        <object label="&lt;font style=&quot;font-size: 16px&quot;&gt;&lt;b&gt;&lt;font style=&quot;font-size: 16px&quot;&gt;&lt;span&gt;%A_NAME%&lt;/span&gt;&lt;/font&gt;&lt;/b&gt;&lt;/font&gt;&lt;br&gt;&lt;div&gt;&lt;font style=&quot;font-size: 11px&quot;&gt;[Container: %B_TECHNOLOGY%]&lt;/font&gt;&lt;/div&gt;&lt;div style=&quot;font-size: 10px&quot;&gt;&lt;br&gt;&lt;/div&gt;&lt;div style=&quot;font-size: 11px&quot;&gt;&lt;font color=&quot;#E6E6E6&quot;&gt;%C_DESCRIPTION%&lt;/font&gt;&lt;/div&gt;" placeholders="1" A_NAME="Backoffice" C_DESCRIPTION="Serviço central, rodando em nuvem, responsável por gerir cadastro de clientes, licenças e atualizacões" B_TECHNOLOGY="DotNet Core 5, Rest, Docker, Azure" id="KcmYJF3Uc0OTwMoQ4MOy-13">
          <mxCell style="rounded=1;whiteSpace=wrap;html=1;fontColor=#ffffff;arcSize=6;metaEdit=1;points=[[0.25,0,0],[0.5,0,0],[0.75,0,0],[1,0.25,0],[1,0.5,0],[1,0.75,0],[0.75,1,0],[0.5,1,0],[0.25,1,0],[0,0.75,0],[0,0.5,0],[0,0.25,0]];resizable=0;editable=1;movableLabel=0;allowArrows=0;rotatable=0;autosize=0;fillColor=#23A2D9;strokeColor=#0E7DAD;expand=0;recursiveResize=0;align=left;" parent="1" vertex="1">
            <mxGeometry x="710" y="170" width="240" height="120" as="geometry" />
          </mxCell>
        </object>
        <object label="&lt;div&gt;&lt;b&gt;%A_DESCRIPTION%&lt;/b&gt;&lt;br&gt;&lt;/div&gt;&lt;div&gt;[%B_TECHNOLOGY%]&lt;/div&gt;" placeholders="1" A_DESCRIPTION="Makes API calls" B_TECHNOLOGY="JSON/HTTPS" id="KcmYJF3Uc0OTwMoQ4MOy-15">
          <mxCell style="endArrow=blockThin;html=1;fontSize=10;fontColor=#404040;strokeWidth=1;endFill=1;strokeColor=#828282;elbow=vertical;metaEdit=1;endSize=14;startSize=14;jumpStyle=arc;jumpSize=16;exitX=1;exitY=0.5;exitDx=0;exitDy=0;exitPerimeter=0;entryX=0;entryY=0.5;entryDx=0;entryDy=0;entryPerimeter=0;" parent="1" source="KcmYJF3Uc0OTwMoQ4MOy-4" target="KcmYJF3Uc0OTwMoQ4MOy-13" edge="1">
            <mxGeometry width="50" height="50" relative="1" as="geometry">
              <mxPoint x="720" y="240" as="sourcePoint" />
              <mxPoint x="990" y="239.5" as="targetPoint" />
            </mxGeometry>
          </mxCell>
        </object>
        <object label="&lt;div&gt;&lt;b&gt;%A_DESCRIPTION%&lt;/b&gt;&lt;br&gt;&lt;/div&gt;&lt;div&gt;[%B_TECHNOLOGY%]&lt;/div&gt;" placeholders="1" A_DESCRIPTION="Makes API calls" B_TECHNOLOGY="JSON/HTTPS" id="KcmYJF3Uc0OTwMoQ4MOy-16">
          <mxCell style="endArrow=blockThin;html=1;fontSize=10;fontColor=#404040;strokeWidth=1;endFill=1;strokeColor=#828282;elbow=vertical;metaEdit=1;endSize=14;startSize=14;jumpStyle=arc;jumpSize=16;exitX=0.5;exitY=0;exitDx=0;exitDy=0;exitPerimeter=0;entryX=0.5;entryY=1;entryDx=0;entryDy=0;entryPerimeter=0;" parent="1" source="KcmYJF3Uc0OTwMoQ4MOy-9" target="KcmYJF3Uc0OTwMoQ4MOy-13" edge="1">
            <mxGeometry width="50" height="50" relative="1" as="geometry">
              <mxPoint x="860" y="390" as="sourcePoint" />
              <mxPoint x="1060" y="390" as="targetPoint" />
            </mxGeometry>
          </mxCell>
        </object>
        <object label="&lt;font style=&quot;font-size: 16px&quot;&gt;&lt;b&gt;&lt;font style=&quot;font-size: 16px&quot;&gt;&lt;span&gt;%A_NAME%&lt;/span&gt;&lt;/font&gt;&lt;/b&gt;&lt;/font&gt;&lt;br&gt;&lt;div&gt;&lt;font style=&quot;font-size: 11px&quot;&gt;[Container: %B_TECHNOLOGY%]&lt;/font&gt;&lt;/div&gt;&lt;div style=&quot;font-size: 10px&quot;&gt;&lt;br&gt;&lt;/div&gt;&lt;div style=&quot;font-size: 11px&quot;&gt;&lt;font color=&quot;#E6E6E6&quot;&gt;%C_DESCRIPTION%&lt;/font&gt;&lt;/div&gt;" placeholders="1" A_NAME="Offline Updater Local Agent" C_DESCRIPTION="Responsável por gerir o processo de atualização das imagens Docker, quando utilizado, ou dos serviços no Windows/Linx, bem como a execução de migrations da malha de contingência" B_TECHNOLOGY="C#, .NetCore 5, MongoDB" id="1vHx0X96SqIEpwtabKhv-1">
          <mxCell style="rounded=1;whiteSpace=wrap;html=1;fontColor=#ffffff;arcSize=6;metaEdit=1;points=[[0.25,0,0],[0.5,0,0],[0.75,0,0],[1,0.25,0],[1,0.5,0],[1,0.75,0],[0.75,1,0],[0.5,1,0],[0.25,1,0],[0,0.75,0],[0,0.5,0],[0,0.25,0]];resizable=0;editable=1;movableLabel=0;allowArrows=0;rotatable=0;autosize=0;fillColor=#23A2D9;strokeColor=#0E7DAD;expand=0;recursiveResize=0;" vertex="1" parent="1">
            <mxGeometry x="710" y="650" width="240" height="120" as="geometry" />
          </mxCell>
        </object>
        <object label="&lt;div&gt;&lt;b&gt;%A_DESCRIPTION%&lt;/b&gt;&lt;br&gt;&lt;/div&gt;&lt;div&gt;[%B_TECHNOLOGY%]&lt;/div&gt;" placeholders="1" A_DESCRIPTION="Makes API calls" B_TECHNOLOGY="JSON/HTTP" id="1vHx0X96SqIEpwtabKhv-2">
          <mxCell style="endArrow=blockThin;html=1;fontSize=10;fontColor=#404040;strokeWidth=1;endFill=1;strokeColor=#828282;elbow=vertical;metaEdit=1;endSize=14;startSize=14;jumpStyle=arc;jumpSize=16;exitX=0.5;exitY=0;exitDx=0;exitDy=0;exitPerimeter=0;entryX=0.5;entryY=1;entryDx=0;entryDy=0;entryPerimeter=0;" edge="1" parent="1" source="1vHx0X96SqIEpwtabKhv-1" target="KcmYJF3Uc0OTwMoQ4MOy-9">
            <mxGeometry width="50" height="50" relative="1" as="geometry">
              <mxPoint x="830" y="601.1" as="sourcePoint" />
              <mxPoint x="840" y="560" as="targetPoint" />
            </mxGeometry>
          </mxCell>
        </object>
        <object label="&lt;font style=&quot;font-size: 16px&quot;&gt;&lt;b&gt;&lt;font style=&quot;font-size: 16px&quot;&gt;&lt;span&gt;%A_NAME%&lt;/span&gt;&lt;/font&gt;&lt;/b&gt;&lt;/font&gt;&lt;br&gt;&lt;div&gt;&lt;font style=&quot;font-size: 11px&quot;&gt;[Container: %B_TECHNOLOGY%]&lt;/font&gt;&lt;/div&gt;&lt;div style=&quot;font-size: 10px&quot;&gt;&lt;br&gt;&lt;/div&gt;&lt;div style=&quot;font-size: 11px&quot;&gt;&lt;font color=&quot;#E6E6E6&quot;&gt;%C_DESCRIPTION%&lt;/font&gt;&lt;/div&gt;" A_NAME="Contingência DB" B_TECHNOLOGY="Mongodb" C_DESCRIPTION="Banco de dados do serviço de contingência" placeholders="1" id="1vHx0X96SqIEpwtabKhv-3">
          <mxCell style="shape=cylinder3;whiteSpace=wrap;html=1;boundedLbl=1;backgroundOutline=1;size=15;rounded=1;fontColor=#ffffff;arcSize=6;autosize=0;metaEdit=1;resizable=0;rotatable=0;allowArrows=0;fillColor=#23A2D9;strokeColor=#0E7DAD;spacingTop=0;recursiveResize=0;expand=0;" vertex="1" parent="1">
            <mxGeometry x="1080" y="650" width="240" height="120" as="geometry" />
          </mxCell>
        </object>
        <mxCell id="1vHx0X96SqIEpwtabKhv-4" value="" style="endArrow=blockThin;html=1;fontSize=10;fontColor=#404040;strokeColor=#828282;strokeWidth=1;endFill=1;endSize=14;startSize=14;jumpStyle=arc;jumpSize=16;exitX=1;exitY=0.5;exitDx=0;exitDy=0;exitPerimeter=0;" edge="1" parent="1" source="1vHx0X96SqIEpwtabKhv-1" target="1vHx0X96SqIEpwtabKhv-3">
          <mxGeometry width="50" height="50" relative="1" as="geometry">
            <mxPoint x="970" y="719.4100000000001" as="sourcePoint" />
            <mxPoint x="1210" y="719.4100000000001" as="targetPoint" />
          </mxGeometry>
        </mxCell>
        <object label="&lt;font style=&quot;font-size: 16px&quot;&gt;&lt;b&gt;&lt;font style=&quot;font-size: 16px&quot;&gt;&lt;span&gt;%A_NAME%&lt;/span&gt;&lt;/font&gt;&lt;/b&gt;&lt;/font&gt;&lt;br&gt;&lt;div&gt;&lt;font style=&quot;font-size: 11px&quot;&gt;[Container: %B_TECHNOLOGY%]&lt;/font&gt;&lt;/div&gt;&lt;div style=&quot;font-size: 10px&quot;&gt;&lt;br&gt;&lt;/div&gt;&lt;div style=&quot;font-size: 11px&quot;&gt;&lt;font color=&quot;#E6E6E6&quot;&gt;%C_DESCRIPTION%&lt;/font&gt;&lt;/div&gt;" A_NAME="Central Updater DB" B_TECHNOLOGY="Mongodb" C_DESCRIPTION="Banco de dados do serviço de central de atualizações, para armazenamento de metadados de atualização." placeholders="1" id="1vHx0X96SqIEpwtabKhv-6">
          <mxCell style="shape=cylinder3;whiteSpace=wrap;html=1;boundedLbl=1;backgroundOutline=1;size=15;rounded=1;fontColor=#ffffff;arcSize=6;autosize=0;metaEdit=1;resizable=0;rotatable=0;allowArrows=0;fillColor=#23A2D9;strokeColor=#0E7DAD;spacingTop=0;recursiveResize=0;expand=0;" vertex="1" parent="1">
            <mxGeometry x="1090" y="430" width="240" height="120" as="geometry" />
          </mxCell>
        </object>
        <mxCell id="1vHx0X96SqIEpwtabKhv-7" value="" style="endArrow=blockThin;html=1;fontSize=10;fontColor=#404040;strokeColor=#828282;strokeWidth=1;endFill=1;endSize=14;startSize=14;jumpStyle=arc;jumpSize=16;exitX=1;exitY=0.5;exitDx=0;exitDy=0;exitPerimeter=0;entryX=0;entryY=0.5;entryDx=0;entryDy=0;entryPerimeter=0;" edge="1" parent="1" source="KcmYJF3Uc0OTwMoQ4MOy-9" target="1vHx0X96SqIEpwtabKhv-6">
          <mxGeometry width="50" height="50" relative="1" as="geometry">
            <mxPoint x="1000" y="500" as="sourcePoint" />
            <mxPoint x="1300" y="500.40999999999997" as="targetPoint" />
          </mxGeometry>
        </mxCell>
      </root>
    </mxGraphModel>
  </diagram>
</mxfile>
